# xmcd CD database file
#
# Track frame offsets:
#	150
#	15941
#	29585
#	47046
#	69408
#	84285
#	102370
#	122163
#	135543
#	147765
#
# Disc length: 2259 seconds
#
# Revision: 0
# Processed by: cddbd v1.5.2PL0 Copyright (c) Steve Scherf et al.
# Submitted via: CDex 1.51
#
DISCID=7d08d10a
DTITLE=Bob Fortner - Phoenix
DYEAR=1900
DGENRE=Country
TTITLE0=Travelin' Prayer
TTITLE1=Statue of a Fool
TTITLE2=You've Got Me Running
TTITLE3=Bayou Jubilee
TTITLE4=America/God Bless The USA
TTITLE5=Gospel Medley
TTITLE6=What's Forever For?
TTITLE7=I wish I was in Nashville
TTITLE8=My Window Faces the South
TTITLE9=American Trilogy
EXTD=
EXTT0=
EXTT1=
EXTT2=
EXTT3=
EXTT4=
EXTT5=
EXTT6=
EXTT7=
EXTT8=
EXTT9=
PLAYORDER=
